<svg xmlns="http://www.w3.org/2000/svg" viewBox="0 0 304.5 301.8" style="enable-background:new 0 0 304.5 301.8">
  <style>
    .st0{fill:#2880be}
  </style>
  <g id="Layer_2">
    <path id="XMLID_4_" class="st0" d="M203.6 61C142.2 48.4 69.1 80.2 68.5 150.9c-.4 42.8 34.6 78.8 77.3 81.1 47.2 2.5 84.1-26.9 83.8-74.4-.2-36.2-33.3-52.5-49.5-55.1-28.7-4.6-60.6 10.7-64.2 36.7-7 50.8 46.3 49.5 56.2 44.3 13.8-7.3 9.1-23 4.5-28.4-6.8-7.9-28.8 4.2-32.5-7.8-3.3-10.9 7.8-20.6 22-20.6 14.5 0 21.4 3 31.5 15.8 7 8.9 8.5 25.9 1.6 38.5-9.8 17.8-27.2 25.1-49.1 23.6-25.5-1.6-53.4-18.1-54.9-52.7-2-44.6 36-70.9 86.8-66.7 21.5 1.8 66.4 23.8 66.3 69.8-.2 51.3-39.3 90.4-90.4 94.1-60 4.4-107-39.9-107-99 0-55.4 43-97.7 97.7-105.8 28.8-3 52.6-6.4 82.9 3.9 1.4.5 2.4-1.3 1.2-2.3-24.7-19.6-56.5-30.6-90.9-28.5-66 4.1-119.7 57.3-124.2 123.3C12.3 218.4 73.7 283 150.2 283c73.4 0 132.8-59.5 132.9-132.9.1-32.2-23.3-77.5-79.5-89.1z"/>
  </g>
</svg>
