<?xml version="1.0" encoding="utf-8"?>
<!-- Generator: Adobe Illustrator 19.0.0, SVG Export Plug-In . SVG Version: 6.00 Build 0)  -->
<svg version="1.1" id="Layer_1" xmlns="http://www.w3.org/2000/svg" xmlns:xlink="http://www.w3.org/1999/xlink" x="0px" y="0px"
	 viewBox="-710 102 498 498" style="enable-background:new -710 102 498 498;" xml:space="preserve">
<style type="text/css">
	.st0{fill:#FFFFFF;}
</style>
<path class="st0" d="M-461.7,102l-247.7,214.7V600H-214V316.7L-461.7,102z M-531.1,463.8l-162.3,112.9v-240L-531.1,463.8z
	 M-349.8,410.2l-58.7,45.9h-106.4l-58.7-45.9V264.4h223.7V410.2z M-515.1,472.2h106.8L-247.5,584h-428.5L-515.1,472.2z
	 M-392.3,463.8L-230,336.7v240L-392.3,463.8z M-234.6,320l-99.3,77.7V248.4h-255.7v149.3l-99.3-77.7l227.2-196.9L-234.6,320z"/>
<path class="st0" d="M-557.6,280.4h191.8v16h-191.8V280.4z"/>
<path class="st0" d="M-557.6,312.3h32v16h-32V312.3z"/>
<path class="st0" d="M-509.7,312.3h143.8v16h-143.8V312.3z"/>
<path class="st0" d="M-557.6,344.3h191.8v16h-191.8V344.3z"/>
<path class="st0" d="M-557.6,376.3h159.8v16h-159.8V376.3z"/>
<path class="st0" d="M-381.8,376.3h16v16h-16V376.3z"/>
<path class="st0" d="M-517.6,408.2h111.9v16h-111.9V408.2z"/>
</svg>
