<?xml version="1.0" encoding="utf-8"?>
<!-- Generator: Adobe Illustrator 19.0.0, SVG Export Plug-In . SVG Version: 6.00 Build 0)  -->
<svg version="1.1" id="Capa_1" xmlns="http://www.w3.org/2000/svg" xmlns:xlink="http://www.w3.org/1999/xlink" x="0px" y="0px"
	 viewBox="-929 321 60 60" style="enable-background:new -929 321 60 60;" xml:space="preserve">
<style type="text/css">
	.st0{fill:#FFFFFF;}
</style>
<g>
	<path class="st0" d="M-886.4,321h-25.2c-2.4,0-4.4,2-4.4,4.4v51.2c0,2.4,2,4.4,4.4,4.4h25.2c2.4,0,4.4-2,4.4-4.4v-51.2
		C-882,323-884,321-886.4,321z M-914,329h30v38h-30V329z M-911.6,323h25.2c1.3,0,2.4,1.1,2.4,2.4v1.6h-30v-1.6
		C-914,324.1-912.9,323-911.6,323z M-886.4,379h-25.2c-1.3,0-2.4-1.1-2.4-2.4V369h30v7.6C-884,377.9-885.1,379-886.4,379z"/>
	<path class="st0" d="M-899,370c-2.2,0-4,1.8-4,4s1.8,4,4,4s4-1.8,4-4S-896.8,370-899,370z M-899,376c-1.1,0-2-0.9-2-2s0.9-2,2-2
		s2,0.9,2,2S-897.9,376-899,376z"/>
	<path class="st0" d="M-903,326h4c0.6,0,1-0.4,1-1s-0.4-1-1-1h-4c-0.6,0-1,0.4-1,1S-903.6,326-903,326z"/>
	<path class="st0" d="M-896,326h1c0.6,0,1-0.4,1-1s-0.4-1-1-1h-1c-0.6,0-1,0.4-1,1S-896.6,326-896,326z"/>
	<path class="st0" d="M-872.4,325.6c-0.4-0.4-1-0.4-1.4,0s-0.4,1,0,1.4c3.7,3.7,3.7,9.8,0,13.6c-0.4,0.4-0.4,1,0,1.4
		c0.2,0.2,0.5,0.3,0.7,0.3c0.3,0,0.5-0.1,0.7-0.3C-867.9,337.4-867.9,330.1-872.4,325.6z"/>
	<path class="st0" d="M-876.6,327.8c-0.4-0.4-1-0.4-1.4,0s-0.4,1,0,1.4c1.2,1.2,1.9,2.9,1.9,4.6s-0.7,3.4-1.9,4.6
		c-0.4,0.4-0.4,1,0,1.4c0.2,0.2,0.5,0.3,0.7,0.3c0.3,0,0.5-0.1,0.7-0.3c1.6-1.6,2.5-3.8,2.5-6.1C-874.1,331.6-875,329.5-876.6,327.8
		z"/>
	<path class="st0" d="M-924.2,327c0.4-0.4,0.4-1,0-1.4s-1-0.4-1.4,0c-4.5,4.5-4.5,11.9,0,16.4c0.2,0.2,0.5,0.3,0.7,0.3
		c0.3,0,0.5-0.1,0.7-0.3c0.4-0.4,0.4-1,0-1.4C-927.9,336.8-927.9,330.7-924.2,327z"/>
	<path class="st0" d="M-920,327.6c-0.4-0.4-1-0.4-1.4,0c-1.6,1.6-2.5,3.8-2.5,6.1s0.9,4.4,2.5,6.1c0.2,0.2,0.5,0.3,0.7,0.3
		c0.3,0,0.5-0.1,0.7-0.3c0.4-0.4,0.4-1,0-1.4c-1.2-1.2-1.9-2.9-1.9-4.6s0.7-3.4,1.9-4.6C-919.6,328.6-919.6,328-920,327.6z"/>
</g>
</svg>
