<?xml version="1.0" encoding="utf-8"?>
<!-- Generator: Adobe Illustrator 19.0.0, SVG Export Plug-In . SVG Version: 6.00 Build 0)  -->
<svg version="1.1" xmlns="http://www.w3.org/2000/svg" xmlns:xlink="http://www.w3.org/1999/xlink" x="0px" y="0px"
	 viewBox="0 0 1585.3 301.8" style="enable-background:new 0 0 1585.3 301.8;" xml:space="preserve">
<style type="text/css">
	.st0{fill:#2880BE;}
	.st1{fill:none;}
	.st2{fill:#FFFFFF;}
	.st3{font-family:'Montserrat-Bold';}
	.st4{font-size:220px;}
</style>
<g id="Layer_2">
	<path id="XMLID_4_" class="st0" d="M203.6,61C142.2,48.4,69.1,80.2,68.5,150.9c-0.4,42.8,34.6,78.8,77.3,81.1
		c47.2,2.5,84.1-26.9,83.8-74.4c-0.2-36.2-33.3-52.5-49.5-55.1c-28.7-4.6-60.6,10.7-64.2,36.7c-7,50.8,46.3,49.5,56.2,44.3
		c13.8-7.3,9.1-23,4.5-28.4c-6.8-7.9-28.8,4.2-32.5-7.8c-3.3-10.9,7.8-20.6,22-20.6c14.5,0,21.4,3,31.5,15.8
		c7,8.9,8.5,25.9,1.6,38.5c-9.8,17.8-27.2,25.1-49.1,23.6c-25.5-1.6-53.4-18.1-54.9-52.7c-2-44.6,36-70.9,86.8-66.7
		c21.5,1.8,66.4,23.8,66.3,69.8c-0.2,51.3-39.3,90.4-90.4,94.1c-60,4.4-107-39.9-107-99c0-55.4,43-97.7,97.7-105.8
		c28.8-3,52.6-6.4,82.9,3.9c1.4,0.5,2.4-1.3,1.2-2.3c-24.7-19.6-56.5-30.6-90.9-28.5c-66,4.1-119.7,57.3-124.2,123.3
		c-5.3,77.7,56.1,142.3,132.6,142.3c73.4,0,132.8-59.5,132.9-132.9C283.2,117.9,259.8,72.6,203.6,61z"/>
</g>
<g id="Layer_3">
	<rect id="XMLID_2_" x="320.7" y="69.5" class="st1" width="1299.1" height="343.1"/>
	<text id="XMLID_1_" transform="matrix(1 0 0 1 320.714 232.7637)" class="st2 st3 st4">PROSFERA</text>
</g>
</svg>
