<?xml version="1.0" encoding="utf-8"?>
<!-- Generator: Adobe Illustrator 19.0.0, SVG Export Plug-In . SVG Version: 6.00 Build 0)  -->
<svg version="1.1" id="Layer_1" xmlns="http://www.w3.org/2000/svg" xmlns:xlink="http://www.w3.org/1999/xlink" x="0px" y="0px"
	 viewBox="-166 200.2 1585.3 301.8" style="enable-background:new -166 200.2 1585.3 301.8;" xml:space="preserve">
<style type="text/css">
	.st0{fill:#2880BE;}
	.st1{fill:none;}
	.st2{enable-background:new    ;}
	.st3{fill:#FFFFFF;}
</style>
<g id="Layer_2">
	<path id="XMLID_4_" class="st0" d="M37.6,261.2c-61.4-12.6-134.5,19.2-135.1,89.9c-0.4,42.8,34.6,78.8,77.3,81.1
		c47.2,2.5,84.1-26.9,83.8-74.4c-0.2-36.2-33.3-52.5-49.5-55.1c-28.7-4.6-60.6,10.7-64.2,36.7c-7,50.8,46.3,49.5,56.2,44.3
		c13.8-7.3,9.1-23,4.5-28.4c-6.8-7.9-28.8,4.2-32.5-7.8c-3.3-10.9,7.8-20.6,22-20.6c14.5,0,21.4,3,31.5,15.8
		c7,8.9,8.5,25.9,1.6,38.5C23.4,399,6,406.3-15.9,404.8c-25.5-1.6-53.4-18.1-54.9-52.7c-2-44.6,36-70.9,86.8-66.7
		c21.5,1.8,66.4,23.8,66.3,69.8c-0.2,51.3-39.3,90.4-90.4,94.1c-60,4.4-107-39.9-107-99c0-55.4,43-97.7,97.7-105.8
		c28.8-3,52.6-6.4,82.9,3.9c1.4,0.5,2.4-1.3,1.2-2.3c-24.7-19.6-56.5-30.6-90.9-28.5c-66,4.1-119.7,57.3-124.2,123.3
		c-5.3,77.7,56.1,142.3,132.6,142.3c73.4,0,132.8-59.5,132.9-132.9C117.2,318.1,93.8,272.8,37.6,261.2L37.6,261.2z"/>
</g>
<g id="Layer_3">
	<path id="XMLID_2_" class="st1" d="M154.7,269.7h1299.1v343.1H154.7V269.7z"/>
	<g class="st2">
		<path class="st3" d="M237.2,279c39.4,0,62,19.4,62,53.7c0,36.1-22.7,57-62,57h-27.9V433h-39.2V279H237.2z M209.3,358.8h26
			c17.2,0,27.1-8.6,27.1-24.9c0-16.1-9.9-24.2-27.1-24.2h-26V358.8z"/>
		<path class="st3" d="M389.7,389.6h-1.1h-29.7V433h-39.2V279h68.9c40.7,0,64,19.4,64,53.7c0,23.5-9.9,40.5-27.9,49.5L457,433h-44.4
			L389.7,389.6z M388.6,358.8c16.9,0,26.8-8.6,26.8-24.9c0-16.1-9.9-24.2-26.8-24.2h-29.7v49.1H388.6z"/>
		<path class="st3" d="M635.4,355.7c0,44.9-35.6,79-83.4,79c-47.5,0-83.2-33.9-83.2-79c0-44.9,35.6-78.1,83.2-78.1
			C599.8,277.6,635.4,311.1,635.4,355.7z M508.9,356c0,26,20,46,43.6,46c23.8,0,42.7-20,42.7-46c0-26-18.9-45.5-42.7-45.5
			S508.9,330,508.9,356z"/>
		<path class="st3" d="M776,294.4l-14.7,30.6c-16.3-9.5-36.7-16.1-49.3-16.1c-10.1,0-16.9,3.7-16.9,11.2c0,26.6,81.4,11.4,81.4,67.1
			c0,30.8-27.3,47.1-61.6,47.1c-25.7,0-52.1-9.7-70.4-24.6l15.2-30.1c15.8,13.9,39.6,23.1,55.7,23.1c12.3,0,20-4.6,20-13.4
			c0-27.3-81.4-11-81.4-65.6c0-28.4,24.4-46.4,61.4-46.4C737.5,277.2,760.2,284,776,294.4z"/>
		<path class="st3" d="M836.9,309.8v35.6H906v30.8h-69.1V433h-39.2V279H912v30.8H836.9z"/>
		<path class="st3" d="M969.8,309.8v30.6h73.5v30.8h-73.5v31h83.8V433h-123V279h120.6v30.8H969.8z"/>
		<path class="st3" d="M1148.9,389.6h-1.1h-29.7V433h-39.2V279h68.9c40.7,0,64,19.4,64,53.7c0,23.5-9.9,40.5-27.9,49.5l32.3,50.8
			h-44.4L1148.9,389.6z M1147.8,358.8c16.9,0,26.8-8.6,26.8-24.9c0-16.1-9.9-24.2-26.8-24.2h-29.7v49.1H1147.8z"/>
		<path class="st3" d="M1273.2,404.6L1262,433h-40.3l66.4-154h40.3l64.9,154h-41.8l-11-28.4H1273.2z M1307.1,317.9l-22.4,57h44.4
			L1307.1,317.9z"/>
	</g>
</g>
</svg>
